<?xml version="1.0" encoding="UTF-8" standalone="no"?>
<svg
   width="100%"
   height="100%"
   viewBox="0 0 1920 1080"
   version="1.1"
   xml:space="preserve"
   style="fill-rule:evenodd;clip-rule:evenodd;stroke-linejoin:round;stroke-miterlimit:2;"
   id="svg45"
   sodipodi:docname="logo.svg"
   inkscape:version="1.1.1 (3bf5ae0d25, 2021-09-20)"
   xmlns:inkscape="http://www.inkscape.org/namespaces/inkscape"
   xmlns:sodipodi="http://sodipodi.sourceforge.net/DTD/sodipodi-0.dtd"
   xmlns="http://www.w3.org/2000/svg"
   xmlns:svg="http://www.w3.org/2000/svg"
   xmlns:serif="http://www.serif.com/"><defs
   id="defs49" /><sodipodi:namedview
   id="namedview47"
   pagecolor="#ffffff"
   bordercolor="#666666"
   borderopacity="1.0"
   inkscape:pageshadow="2"
   inkscape:pageopacity="0.0"
   inkscape:pagecheckerboard="0"
   showgrid="false"
   inkscape:zoom="0.76388889"
   inkscape:cx="960.21818"
   inkscape:cy="540"
   inkscape:window-width="1920"
   inkscape:window-height="1023"
   inkscape:window-x="0"
   inkscape:window-y="29"
   inkscape:window-maximized="1"
   inkscape:current-layer="g42" />
    <g
   id="r"
   transform="matrix(1.49619,0,0,1.49619,1183.24,-563.476)">
        <path
   d="M367.73,925.203C367.73,873.914 326.152,832.335 274.862,832.335C223.607,832.335 181.995,873.948 181.995,925.203C181.995,976.493 223.573,1018.07 274.862,1018.07L274.862,925.203L367.73,925.203Z"
   style="fill:rgb(240,186,143);"
   id="path2" />
    </g>
    <g
   id="e"
   transform="matrix(1.49619,0,0,1.49619,841.843,-563.476)">
        <path
   d="M274.862,832.335C223.573,832.335 181.995,873.914 181.995,925.203C181.995,976.458 223.607,1018.07 274.862,1018.07C326.152,1018.07 367.73,976.493 367.73,925.203L274.862,925.203L274.862,832.335Z"
   style="fill:rgb(138,172,195);"
   id="path5" />
    </g>
    <g
   id="t">
        <g
   transform="matrix(1.09894,0,0,1.09894,646.582,-159.045)"
   id="g10">
            <path
   d="M274.862,832.335C223.573,832.335 181.995,873.914 181.995,925.203C181.995,976.458 223.607,1018.07 274.862,1018.07C326.152,1018.07 367.73,976.493 367.73,925.203L274.862,925.203L274.862,832.335Z"
   style="fill:rgb(223,154,139);"
   id="path8" />
        </g>
        <g
   transform="matrix(1.09894,0,0,1.09894,544.525,-370.342)"
   id="g14">
            <path
   d="M274.862,1018.07C326.152,1018.07 367.73,976.493 367.73,925.203C367.73,873.948 326.118,832.335 274.862,832.335C223.573,832.335 181.995,873.914 181.995,925.203L274.862,925.203L274.862,1018.07Z"
   style="fill:rgb(223,154,139);"
   id="path12" />
        </g>
        <g
   transform="matrix(1.09894,0,0,1.09894,544.525,-490.273)"
   id="g18">
            <path
   d="M367.73,925.203C367.73,873.914 326.152,832.335 274.862,832.335L274.862,925.203L367.73,925.203Z"
   style="fill:rgb(223,154,139);"
   id="path16" />
        </g>
    </g>
    <g
   id="e1"
   serif:id="e"
   transform="matrix(1.49619,0,0,1.49619,195.332,-563.476)">
        <path
   d="M274.862,832.335C223.573,832.335 181.995,873.914 181.995,925.203C181.995,976.458 223.607,1018.07 274.862,1018.07C326.152,1018.07 367.73,976.493 367.73,925.203L274.862,925.203L274.862,832.335Z"
   style="fill:rgb(159,199,158);"
   id="path21" />
    </g>
    <g
   id="P">
        <g
   transform="matrix(1.09894,0,0,1.09894,-13.4408,-370.342)"
   id="g26">
            <circle
   cx="274.862"
   cy="925.203"
   r="92.868"
   style="fill:rgb(231,216,141);"
   id="circle24" />
        </g>
        <g
   transform="matrix(1.09894,0,0,1.09894,-13.4408,-159.045)"
   id="g30">
            <circle
   cx="274.862"
   cy="925.203"
   r="92.868"
   style="fill:rgb(231,216,141);"
   id="circle28" />
        </g>
        <g
   transform="matrix(1.09894,0,0,1.09894,-13.4408,-583.391)"
   id="g34">
            <circle
   cx="274.862"
   cy="925.203"
   r="92.868"
   style="fill:rgb(231,216,141);"
   id="circle32" />
        </g>
        <g
   transform="matrix(1.09894,0,0,1.09894,-13.4408,-796.441)"
   id="g38">
            <circle
   cx="274.862"
   cy="925.203"
   r="92.868"
   style="fill:rgb(231,216,141);"
   id="circle36" />
        </g>
        <g
   transform="matrix(1.20105,0,0,1.20105,-284.265,-40.0225)"
   id="g42">
            <path
   d="M572.31,540C685.038,540 776.422,448.616 776.422,335.888C776.422,223.159 685.038,131.775 572.31,131.775L572.31,540Z"
   style="fill:rgb(231,216,141);"
   id="path40" />
        </g>
    </g>
</svg>
