<?xml version="1.0" encoding="UTF-8" standalone="no"?>
<!DOCTYPE svg PUBLIC "-//W3C//DTD SVG 1.1//EN" "http://www.w3.org/Graphics/SVG/1.1/DTD/svg11.dtd">
<svg width="100%" height="100%" viewBox="0 0 1920 1080" version="1.1" xmlns="http://www.w3.org/2000/svg" xmlns:xlink="http://www.w3.org/1999/xlink" xml:space="preserve" xmlns:serif="http://www.serif.com/" style="fill-rule:evenodd;clip-rule:evenodd;stroke-linejoin:round;stroke-miterlimit:2;">
    <g id="r" transform="matrix(1.49619,0,0,1.49619,1183.24,-563.476)">
        <path d="M367.73,925.203C367.73,873.914 326.152,832.335 274.862,832.335C223.607,832.335 181.995,873.948 181.995,925.203C181.995,976.493 223.573,1018.07 274.862,1018.07L274.862,925.203L367.73,925.203Z" style="fill:rgb(240,186,143);"/>
    </g>
    <g id="e" transform="matrix(1.49619,0,0,1.49619,841.843,-563.476)">
        <path d="M274.862,832.335C223.573,832.335 181.995,873.914 181.995,925.203C181.995,976.458 223.607,1018.07 274.862,1018.07C326.152,1018.07 367.73,976.493 367.73,925.203L274.862,925.203L274.862,832.335Z" style="fill:rgb(174,234,227);"/>
    </g>
    <g id="t">
        <g transform="matrix(1.09894,0,0,1.09894,646.582,-159.045)">
            <path d="M274.862,832.335C223.573,832.335 181.995,873.914 181.995,925.203C181.995,976.458 223.607,1018.07 274.862,1018.07C326.152,1018.07 367.73,976.493 367.73,925.203L274.862,925.203L274.862,832.335Z" style="fill:rgb(223,154,139);"/>
        </g>
        <g transform="matrix(1.09894,0,0,1.09894,544.525,-370.342)">
            <path d="M274.862,1018.07C326.152,1018.07 367.73,976.493 367.73,925.203C367.73,873.948 326.118,832.335 274.862,832.335C223.573,832.335 181.995,873.914 181.995,925.203L274.862,925.203L274.862,1018.07Z" style="fill:rgb(223,154,139);"/>
        </g>
        <g transform="matrix(1.09894,0,0,1.09894,544.525,-490.273)">
            <path d="M367.73,925.203C367.73,873.914 326.152,832.335 274.862,832.335L274.862,925.203L367.73,925.203Z" style="fill:rgb(223,154,139);"/>
        </g>
    </g>
    <g id="e1" serif:id="e" transform="matrix(1.49619,0,0,1.49619,195.332,-563.476)">
        <path d="M274.862,832.335C223.573,832.335 181.995,873.914 181.995,925.203C181.995,976.458 223.607,1018.07 274.862,1018.07C326.152,1018.07 367.73,976.493 367.73,925.203L274.862,925.203L274.862,832.335Z" style="fill:rgb(197,233,184);"/>
    </g>
    <g id="P">
        <g transform="matrix(1.09894,0,0,1.09894,-13.4408,-370.342)">
            <circle cx="274.862" cy="925.203" r="92.868" style="fill:rgb(220,231,141);"/>
        </g>
        <g transform="matrix(1.09894,0,0,1.09894,-13.4408,-159.045)">
            <circle cx="274.862" cy="925.203" r="92.868" style="fill:rgb(220,231,141);"/>
        </g>
        <g transform="matrix(1.09894,0,0,1.09894,-13.4408,-583.391)">
            <circle cx="274.862" cy="925.203" r="92.868" style="fill:rgb(220,231,141);"/>
        </g>
        <g transform="matrix(1.09894,0,0,1.09894,-13.4408,-796.441)">
            <circle cx="274.862" cy="925.203" r="92.868" style="fill:rgb(220,231,141);"/>
        </g>
        <g transform="matrix(1.20105,0,0,1.20105,-284.265,-40.0225)">
            <path d="M572.31,540C685.038,540 776.422,448.616 776.422,335.888C776.422,223.159 685.038,131.775 572.31,131.775L572.31,540Z" style="fill:rgb(220,231,141);"/>
        </g>
    </g>
</svg>
