<svg width="1920" height="1080" viewBox="0 0 1920 1080" fill="none" xmlns="http://www.w3.org/2000/svg">
<path fill-rule="evenodd" clip-rule="evenodd" d="M1568.74 685.605C1645.48 685.605 1707.68 747.815 1707.68 824.553H1568.74V963.5C1533.7 963.5 1501.69 950.532 1477.25 929.134V720.007C1501.7 698.591 1533.71 685.605 1568.74 685.605Z" fill="#EEB181"/>
<path fill-rule="evenodd" clip-rule="evenodd" d="M1385.28 819.052C1385.28 742.314 1323.07 680.105 1246.33 680.105C1169.64 680.105 1107.38 742.365 1107.38 819.052C1107.38 895.792 1169.59 958 1246.33 958V819.052H1385.28Z" fill="#8AACC3"/>
<path fill-rule="evenodd" clip-rule="evenodd" d="M941.833 754.39C885.5 754.39 839.834 800.058 839.834 856.391C839.834 912.686 885.538 958.39 941.833 958.39C998.167 958.39 1043.83 912.725 1043.83 856.391H941.833V754.39Z" fill="#DD9383"/>
<path d="M839.832 763.162C896.165 763.162 941.832 717.478 941.832 661.12L941.832 539.205C941.832 482.849 896.165 437.162 839.832 437.162L839.832 763.162Z" fill="#DD9383"/>
<path fill-rule="evenodd" clip-rule="evenodd" d="M960.306 650.805C1016.64 650.805 1062.31 605.139 1062.31 548.805H960.306V650.805Z" fill="#DD9383"/>
<circle cx="776.25" cy="599.749" r="51" fill="#DD9383"/>
<path fill-rule="evenodd" clip-rule="evenodd" d="M739.145 819.052C739.145 742.314 676.935 680.105 600.197 680.105C523.509 680.105 461.25 742.365 461.25 819.052C461.25 895.792 523.457 958 600.197 958V819.052H739.145Z" fill="#9FC79E"/>
<path d="M212.25 266.75C231.292 266.75 250.147 262.999 267.739 255.713C285.331 248.426 301.316 237.745 314.78 224.28C328.245 210.816 338.926 194.831 346.213 177.239C353.499 159.647 357.25 140.792 357.25 121.75H212.25V266.75Z" fill="#E6D789"/>
<path d="M284.31 797.25C324.35 797.25 356.81 764.791 356.81 724.75L356.81 351.711C356.789 311.688 324.337 279.25 284.31 279.25C244.278 279.25 211.825 311.694 211.81 351.722L211.81 724.75C211.81 764.791 244.269 797.25 284.31 797.25Z" fill="#E6D789"/>
<path d="M357.25 891.25C357.25 931.291 324.791 963.75 284.75 963.75C244.709 963.75 212.25 931.291 212.25 891.25C212.25 851.209 244.709 818.75 284.75 818.75C324.791 818.75 357.25 851.209 357.25 891.25Z" fill="#E6D789"/>
<path d="M679.25 365.75C679.25 500.507 570.007 609.75 435.25 609.75C418.113 609.75 401.389 607.983 385.25 604.622V126.878C401.389 123.517 418.113 121.75 435.25 121.75C570.007 121.75 679.25 230.993 679.25 365.75Z" fill="#E6D789"/>
<path d="M1471.75 717.546V963.75H1482.75V722.75C1511.08 700.911 1532.98 691.275 1568.75 691.25C1642.43 691.198 1702.25 750.876 1702.25 824.551H1713.25C1713.25 744.801 1648.5 680.294 1568.75 680.25C1528.17 680.228 1502.88 691.502 1471.75 717.546Z" fill="#EA9E61"/>
<path d="M1245.83 824.75H1390.25C1391.25 732.75 1318.75 674.75 1245.83 674.75C1166.06 674.75 1101.36 739.28 1101.25 819.052C1101.14 898.933 1165.95 963.792 1245.83 963.75C1302.14 963.721 1348.25 931.25 1370.75 891.75L1361.25 886.25C1345.25 914.25 1305.75 952.75 1245.83 952.75C1172.02 952.793 1112.14 892.858 1112.25 819.052C1112.36 745.355 1172.13 685.739 1245.83 685.75C1318.03 685.761 1376.25 742.25 1379.25 813.75H1245.83V824.75Z" fill="#6B99B8"/>
<path d="M1067.75 543.25C1070.41 607.373 1019.29 656.25 960.309 656.25V645.25C1016.21 645.25 1052.88 600.911 1056.75 554.25H936.25C941.139 494.598 903.822 447.082 845.25 442.75V554.25H776.25C751.121 554.25 730.75 574.621 730.75 599.75C730.75 624.879 751.121 645.25 776.25 645.25H845.25V856.25C845.25 909.546 888.455 952.75 941.75 952.75C995.007 952.75 1038.25 909.647 1038.25 856.391H1049.25C1049.25 915.722 1001.08 963.75 941.75 963.75C882.379 963.75 834.25 915.621 834.25 856.25V656.25H776.25C745.046 656.25 719.75 630.954 719.75 599.75C719.75 568.546 745.046 543.25 776.25 543.25H834.25V431.75C892.106 429.725 947.25 471.165 947.25 543.25H1067.75Z" fill="#D47763"/>
<path d="M599.828 824.75H744.25C745.25 732.75 672.75 674.75 599.828 674.75C520.056 674.75 455.359 739.28 455.25 819.052C455.141 898.933 519.947 963.792 599.828 963.75C656.136 963.721 702.25 931.25 724.75 891.75L715.25 886.25C699.25 914.25 659.75 952.75 599.828 952.75C526.022 952.793 466.141 892.858 466.25 819.052C466.359 745.355 526.131 685.739 599.828 685.75C672.033 685.761 730.25 742.25 733.25 813.75H599.828V824.75Z" fill="#82BC80"/>
<path d="M206.75 963.75V116.25H435.25C573.045 116.25 684.75 227.955 684.75 365.75C684.75 503.545 573.045 615.1 435.25 615.25C415.626 615.271 385.25 610.25 385.25 610.25V599.032C385.25 599.032 415.618 604.278 435.25 604.25C566.97 604.059 673.75 497.47 673.75 365.75C673.75 234.03 566.97 127.25 435.25 127.25H217.75V963.75H206.75Z" fill="#E1CB60"/>
</svg>
